<svg width="149" height="30" viewBox="0 0 149 30" fill="none" xmlns="http://www.w3.org/2000/svg">
<path d="M54.4852 0.949364H60.1114L69.6782 18.0405L79.2448 0.949378H84.7493V29.0333H80.1588V7.50909L71.7701 22.4137H67.4641L59.0754 7.50909V29.0333H54.4852V0.949364Z" fill="white"/>
<path d="M99.5546 29.5334C97.4286 29.5334 95.5597 29.0688 93.9486 28.1391C92.3372 27.2097 91.0811 25.9226 90.1809 24.2777C89.2801 22.6327 88.8299 20.7471 88.8301 18.6208C88.8301 16.4678 89.2703 14.5621 90.1504 12.9037C91.0305 11.2456 92.2526 9.94833 93.8165 9.01187C95.3807 8.07602 97.1782 7.60796 99.2094 7.6077C101.227 7.6077 102.963 8.07908 104.419 9.02188C105.875 9.96489 106.995 11.2856 107.781 12.9839C108.566 14.6824 108.959 16.675 108.959 18.9618V20.2053H93.3798C93.6643 21.9174 94.3651 23.2648 95.4823 24.2473C96.5994 25.2304 98.0109 25.722 99.7169 25.7217C101.085 25.7217 102.263 25.5211 103.251 25.1199C104.24 24.7187 105.167 24.1104 106.034 23.2946L108.471 26.2434C106.047 28.4369 103.075 29.5336 99.5546 29.5334ZM102.906 12.8734C101.944 11.904 100.685 11.4192 99.128 11.419C97.6113 11.419 96.3419 11.9139 95.3197 12.9036C94.297 13.8933 93.6505 15.224 93.3798 16.8956H104.551C104.416 15.1837 103.867 13.843 102.906 12.8734Z" fill="white"/>
<path d="M114.523 11.822H110.298V8.11082H114.523V1.97251H118.951V8.11082H125.369V11.822H118.951V21.23C118.951 22.7946 119.221 23.9112 119.763 24.58C120.304 25.2488 121.232 25.5832 122.546 25.583C123.128 25.583 123.622 25.5597 124.028 25.5128C124.435 25.4662 124.881 25.4025 125.369 25.3222V28.9932C124.813 29.152 124.246 29.2727 123.673 29.3543C123.017 29.4495 122.355 29.4966 121.693 29.4947C116.912 29.4947 114.523 26.9136 114.523 21.7516V11.822Z" fill="white"/>
<path d="M148.445 29.0319H144.099V26.103C143.327 27.1998 142.345 28.0456 141.154 28.6406C139.962 29.2354 138.608 29.5331 137.091 29.5334C135.223 29.5334 133.567 29.062 132.125 28.119C130.683 27.1762 129.549 25.8791 128.723 24.2274C127.897 22.5758 127.484 20.6869 127.484 18.5606C127.484 16.4209 127.904 14.5285 128.743 12.8834C129.583 11.2387 130.744 9.94816 132.227 9.01187C133.709 8.07602 135.412 7.60796 137.335 7.6077C138.784 7.6077 140.084 7.88526 141.235 8.44033C142.37 8.98278 143.354 9.79208 144.099 10.7973V8.10932H148.445V29.0319ZM144.018 15.4312C143.544 14.241 142.795 13.3014 141.773 12.6126C140.751 11.924 139.569 11.5796 138.229 11.5796C136.333 11.5796 134.823 12.2082 133.699 13.4652C132.575 14.7223 132.013 16.4208 132.013 18.5606C132.013 20.7138 132.555 22.4189 133.638 23.6759C134.722 24.9329 136.191 25.5614 138.046 25.5614C139.414 25.5614 140.632 25.2137 141.702 24.5181C142.772 23.8231 143.544 22.8871 144.018 21.7099V15.4312Z" fill="white"/>
<path d="M12.9341 0C12.9196 0 12.9052 5.10524e-05 12.8907 0.00012391L12.8315 4.82926C12.8451 4.82911 12.8586 4.82899 12.8722 4.82899C16.0906 4.82899 18.587 7.33518 24.013 16.3615L24.3437 16.911L24.3654 16.947L27.4027 12.4461L27.3818 12.4113C26.6669 11.2632 25.9801 10.2068 25.3216 9.24212C24.5578 8.12444 23.8273 7.12598 23.1184 6.23453C19.529 1.72086 16.5264 0 12.9341 0Z" fill="url(#paint0_linear_1_17)"/>
<path d="M12.8887 0.00012391C9.27894 0.0184645 6.08765 2.32378 3.78326 5.8514C3.77649 5.86172 3.76976 5.87207 3.76302 5.88244L7.993 8.15623C7.99986 8.14596 8.00674 8.13566 8.01365 8.12544C9.35927 6.12449 11.0339 4.84825 12.8295 4.82926C12.8431 4.82911 12.8566 4.82899 12.8702 4.82899L12.9321 0C12.9176 0 12.9032 5.10524e-05 12.8887 0.00012391Z" fill="url(#paint1_linear_1_17)"/>
<path d="M3.78356 5.8526C3.77679 5.86293 3.77006 5.87327 3.76332 5.88364C2.24907 8.21162 1.12025 11.0683 0.510205 14.1502C0.507561 14.1635 0.504928 14.1769 0.502304 14.1903L5.25452 15.2977C5.25697 15.2843 5.25948 15.2709 5.26199 15.2575C5.76993 12.549 6.73701 10.0371 7.99324 8.15744C8.00013 8.14717 8.00702 8.13687 8.01393 8.12662L3.78356 5.8526Z" fill="url(#paint2_linear_1_17)"/>
<path d="M5.26517 15.2607L0.513372 14.1534C0.510729 14.1667 0.508095 14.1801 0.505471 14.1934C0.17282 15.8883 0.00358509 17.6106 3.45184e-05 19.337C6.48565e-06 19.3509 -4.34286e-06 19.3649 1.55878e-06 19.3788L4.87357 19.8095C4.87318 19.7954 4.87279 19.7816 4.87244 19.7675C4.87006 19.6674 4.86883 19.5659 4.8688 19.4631C4.87121 18.0669 5.00137 16.6739 5.25767 15.3008C5.26016 15.2875 5.26264 15.2741 5.26517 15.2607Z" fill="url(#paint3_linear_1_17)"/>
<path d="M5.0218 21.3028C4.93439 20.8066 4.88484 20.3046 4.87357 19.8011C4.87318 19.7871 4.87279 19.7733 4.87244 19.7592L3.45184e-05 19.3286C6.48565e-06 19.3426 -4.34286e-06 19.3566 1.55878e-06 19.3705V19.3732C1.55878e-06 20.4477 0.0907287 21.4537 0.267055 22.3831C0.269605 22.3966 0.272111 22.4098 0.2747 22.4232L5.02918 21.343C5.02667 21.3297 5.02424 21.3162 5.0218 21.3028Z" fill="url(#paint4_linear_1_17)"/>
<path d="M6.13303 23.8031C5.60269 23.2315 5.22737 22.4068 5.03006 21.3522C5.02755 21.3388 5.02512 21.3254 5.02268 21.312L0.267929 22.3923C0.270479 22.4057 0.272985 22.4189 0.275572 22.4323C0.634954 24.2959 1.33977 25.8489 2.34912 27.0239C2.35809 27.0343 2.36709 27.0448 2.37614 27.0552L6.16136 23.8332C6.15189 23.8233 6.1424 23.8133 6.13303 23.8031Z" fill="url(#paint5_linear_1_17)"/>
<path d="M20.218 10.4391C17.3528 14.7795 15.6171 17.5018 15.6171 17.5018C11.8003 23.4107 10.4799 24.735 8.35494 24.735C7.46824 24.735 6.72749 24.4232 6.15997 23.8272C6.15053 23.8172 6.14101 23.8073 6.13164 23.7971L2.34776 27.0179C2.35673 27.0283 2.36573 27.0387 2.37476 27.0492C3.76845 28.6535 5.73564 29.5438 8.16928 29.5438C11.8512 29.5438 14.4993 27.8295 19.2068 19.7024C19.2068 19.7024 21.1692 16.2799 22.5192 13.9223C21.683 12.5888 20.922 11.4344 20.218 10.4391Z" fill="#0082FB"/>
<path d="M25.3257 3.59037C25.3159 3.60049 25.3061 3.61084 25.2965 3.62099C24.544 4.41273 23.822 5.29688 23.1195 6.23496C23.8284 7.12642 24.5603 8.12682 25.324 9.24449C26.2243 7.87223 27.0645 6.76082 27.888 5.90897C27.8979 5.89887 27.9075 5.88906 27.9173 5.87903L25.3257 3.59037Z" fill="url(#paint6_linear_1_17)"/>
<path d="M39.2339 3.16355C37.2357 1.16983 34.8532 0 32.3061 0C29.6204 0 27.3613 1.45357 25.3235 3.58901C25.3139 3.59914 25.3041 3.60949 25.2945 3.61964L27.886 5.90764C27.8959 5.89754 27.9055 5.88773 27.915 5.8777C29.2574 4.49873 30.5565 3.81023 31.9965 3.81023C33.5464 3.81023 34.9977 4.53084 36.2543 5.79416C36.2641 5.80406 36.274 5.81388 36.2838 5.82386L39.2637 3.19323C39.2536 3.18327 39.2437 3.17346 39.2339 3.16355Z" fill="#0082FB"/>
<path d="M45.0096 18.6964C44.8977 12.295 42.6295 6.57216 39.2629 3.19258C39.2528 3.18265 39.2429 3.17282 39.2329 3.16291L36.2535 5.79351C36.2633 5.80342 36.2732 5.81323 36.283 5.82321C38.8158 8.39266 40.5529 13.1719 40.711 18.695C40.7112 18.7089 40.7117 18.7228 40.7122 18.7367L45.0103 18.7381C45.0101 18.7242 45.0098 18.7103 45.0096 18.6964Z" fill="url(#paint7_linear_1_17)"/>
<path d="M45.0094 18.7411C45.0092 18.7272 45.0092 18.7133 45.009 18.6994L40.7101 18.698C40.7106 18.7119 40.7111 18.7258 40.7113 18.7398C40.7185 18.999 40.7219 19.2598 40.7219 19.5221C40.7219 21.028 40.4942 22.2453 40.0309 23.1241C40.024 23.1371 40.0171 23.1502 40.01 23.1631L43.2151 26.455C43.223 26.4431 43.2308 26.4312 43.2387 26.4193C44.4023 24.6462 45.0131 22.1831 45.0131 19.1961C45.0131 19.0441 45.0119 18.8924 45.0094 18.7411Z" fill="url(#paint8_linear_1_17)"/>
<path d="M40.0325 23.1182C40.0256 23.1313 40.0187 23.1444 40.0116 23.1572C39.6108 23.8981 39.0388 24.3921 38.2908 24.6082L39.7519 29.1557C39.9454 29.0909 40.1338 29.018 40.317 28.9372C40.3718 28.9131 40.4259 28.8883 40.4798 28.8628C40.511 28.8483 40.5417 28.8332 40.5725 28.8182C41.5386 28.3426 42.355 27.6413 43.0153 26.7376C43.0556 26.6825 43.0957 26.6269 43.1348 26.57C43.1623 26.5302 43.1896 26.4899 43.2167 26.4493C43.2245 26.4372 43.2324 26.4253 43.2403 26.4134L40.0325 23.1182Z" fill="url(#paint9_linear_1_17)"/>
<path d="M37.3614 24.7271C36.8715 24.7271 36.4393 24.6552 36.0163 24.4685L34.5202 29.1243C35.361 29.408 36.258 29.5359 37.2583 29.5359C38.18 29.5359 39.0259 29.3995 39.7929 29.1372L38.3322 24.5911C38.0172 24.6841 37.6902 24.73 37.3614 24.7271Z" fill="url(#paint10_linear_1_17)"/>
<path d="M34.3689 23.1455C34.3598 23.135 34.3504 23.1244 34.3411 23.1138L30.8989 26.6495C30.9085 26.6597 30.9181 26.6699 30.9277 26.6799C32.1238 27.9389 33.266 28.7197 34.5612 29.1483L36.056 24.4959C35.5101 24.2644 34.9824 23.8448 34.3689 23.1455Z" fill="url(#paint11_linear_1_17)"/>
<path d="M34.3393 23.1072C33.3068 21.9213 32.0293 19.9469 30.0203 16.7541L27.4019 12.4414L27.381 12.4067L24.3429 16.9063L24.3646 16.9423L26.2199 20.0245C28.0181 22.9966 29.4832 25.1467 30.8969 26.6427C30.9065 26.6529 30.9161 26.6631 30.9257 26.6733L34.3668 23.1389C34.3577 23.1284 34.3484 23.1178 34.3393 23.1072Z" fill="url(#paint12_linear_1_17)"/>
<defs>
<linearGradient id="paint0_linear_1_17" x1="25.3838" y1="15.1166" x2="15.4579" y2="1.94717" gradientUnits="userSpaceOnUse">
<stop offset="0.0006" stop-color="#0867DF"/>
<stop offset="0.4539" stop-color="#0668E1"/>
<stop offset="0.8591" stop-color="#0064E0"/>
</linearGradient>
<linearGradient id="paint1_linear_1_17" x1="5.74991" y1="6.66283" x2="12.6" y2="1.39706" gradientUnits="userSpaceOnUse">
<stop offset="0.1323" stop-color="#0064DF"/>
<stop offset="0.9988" stop-color="#0064E0"/>
</linearGradient>
<linearGradient id="paint2_linear_1_17" x1="2.81994" y1="14.2707" x2="5.53398" y2="7.35299" gradientUnits="userSpaceOnUse">
<stop offset="0.0147" stop-color="#0072EC"/>
<stop offset="0.6881" stop-color="#0064DF"/>
</linearGradient>
<linearGradient id="paint3_linear_1_17" x1="2.4465" y1="19.2546" x2="2.75953" y2="15.0433" gradientUnits="userSpaceOnUse">
<stop offset="0.0731" stop-color="#007CF6"/>
<stop offset="0.9943" stop-color="#0072EC"/>
</linearGradient>
<linearGradient id="paint4_linear_1_17" x1="2.62296" y1="21.5335" x2="2.39899" y2="19.8457" gradientUnits="userSpaceOnUse">
<stop offset="0.0731" stop-color="#007FF9"/>
<stop offset="1" stop-color="#007CF6"/>
</linearGradient>
<linearGradient id="paint5_linear_1_17" x1="2.48911" y1="21.9857" x2="3.89062" y2="24.9957" gradientUnits="userSpaceOnUse">
<stop offset="0.0731" stop-color="#007FF9"/>
<stop offset="1" stop-color="#0082FB"/>
</linearGradient>
<linearGradient id="paint6_linear_1_17" x1="24.4739" y1="7.48373" x2="26.3341" y2="4.87865" gradientUnits="userSpaceOnUse">
<stop offset="0.2799" stop-color="#007FF8"/>
<stop offset="0.9141" stop-color="#0082FB"/>
</linearGradient>
<linearGradient id="paint7_linear_1_17" x1="38.8488" y1="4.13397" x2="42.714" y2="18.5311" gradientUnits="userSpaceOnUse">
<stop stop-color="#0082FB"/>
<stop offset="0.9995" stop-color="#0081FA"/>
</linearGradient>
<linearGradient id="paint8_linear_1_17" x1="43.7593" y1="19.0595" x2="41.3052" y2="24.0806" gradientUnits="userSpaceOnUse">
<stop offset="0.0619" stop-color="#0081FA"/>
<stop offset="1" stop-color="#0080F9"/>
</linearGradient>
<linearGradient id="paint9_linear_1_17" x1="39.2672" y1="26.6997" x2="41.5892" y2="25.0984" gradientUnits="userSpaceOnUse">
<stop stop-color="#027AF3"/>
<stop offset="1" stop-color="#0080F9"/>
</linearGradient>
<linearGradient id="paint10_linear_1_17" x1="35.5975" y1="27.0022" x2="38.8498" y2="27.0022" gradientUnits="userSpaceOnUse">
<stop stop-color="#0377EF"/>
<stop offset="0.9994" stop-color="#0279F1"/>
</linearGradient>
<linearGradient id="paint11_linear_1_17" x1="32.771" y1="25.2439" x2="35.094" y2="26.6277" gradientUnits="userSpaceOnUse">
<stop offset="0.0019" stop-color="#0471E9"/>
<stop offset="1" stop-color="#0377EF"/>
</linearGradient>
<linearGradient id="paint12_linear_1_17" x1="25.6368" y1="15.2198" x2="33.0128" y2="24.6097" gradientUnits="userSpaceOnUse">
<stop offset="0.2765" stop-color="#0867DF"/>
<stop offset="1" stop-color="#0471E9"/>
</linearGradient>
</defs>
</svg>
